<svg viewBox="0 0 382.51 384" xmlns="http://www.w3.org/2000/svg" overflow="hidden"><path d="M258.25 384h-16.47c-22.58-4.07-42.06-15.57-54.21-35.31-6.57-10.68-15.93-36.59-7.92-47.56 7.33-10.03 22.97-7.15 26.23 4.46 2.13 7.58.87 13.87 4.56 22.43 12.87 29.81 53.35 34.86 73.98 9.83 22.39-27.18 4.91-68.16-29.52-71.63H15.36c-8.13-.75-12.28-4.63-15.36-11.97v-6.75c2.36-5.87 6.44-10.64 13.06-11.29h244.09c81.33 8.78 91.51 122.04 13.07 145.16L258.25 384zM149.71 0c5.72 1.41 11.59 2.21 17.19 4.16 74.31 25.91 60.09 135.95-17.53 143.62H12.33C6 146.58 2.27 142.17 0 136.5v-6.75c2.95-6.97 6.89-11.06 14.69-11.91l133.14-.1c31.12-4.7 48.25-38.19 32.21-66.01-20.24-35.09-73.51-25.55-81.03 14.09-1.39 7.35.36 15.33-6.69 20.29-11.45 8.07-24.5-1.07-24.22-14.47.67-30.97 23.08-59.33 52.25-68.44l13.64-3.21h15.72z" fill="#CD1525"/><path d="M300.76 59.47c100.36-9.35 112.39 138.57 13.28 147.56H74.45c-18.79-.99-19.69-28.1-.71-30.02l238.8.02c39.72-3.56 55.61-53.3 23.91-78.76-23.84-19.15-60.86-7.01-69.18 22.15-2.94 10.32.45 26.29-15.36 27.36-20.55 1.4-17.14-22.67-13.33-35.85 7.92-27.37 33.54-49.78 62.18-52.45z" fill="#CD1525"/></svg>