<svg viewBox="0 0 1.67 3.16" xmlns="http://www.w3.org/2000/svg" overflow="hidden"><path d="M.05 3.16c.14.01.27-.04.39-.1a1.82 1.82 0 0 0 .73-.71c.25-.44.31-.96.23-1.46-.05-.3-.15-.59-.3-.85C1.09.02 1.06 0 1.03.01 1 .01.98.03.97.06.88.27.8.47.71.67.7.7.71.74.73.76.76.78.8.76.82.74.91.53 1 .32 1.1.12H.98c.12.23.21.46.27.71.06.24.07.5.05.75-.05.44-.25.85-.57 1.15-.09.08-.18.15-.28.21-.05.03-.11.06-.17.08-.07.03-.14.05-.22.05-.03 0-.05.02-.05.05 0 .03.02.05.05.05H.05z" fill="#A10B19"/><path d="M1.03.11v.02h-.02c.01 0 .02.02.03.02.01 0 .03.01.04.02.03.01.05.03.08.04.05.03.1.06.15.1.09.07.18.15.26.23.06.06.14-.03.09-.09A1.99 1.99 0 0 0 1.3.16c-.06-.04-.13-.07-.2-.1-.03-.01-.09 0-.1.03 0 .02 0 .06.04.06.02 0 .03-.02.01-.04z" fill="#A10B19"/></svg>