<svg viewBox="0 0 383.37 258.5" xmlns="http://www.w3.org/2000/svg" overflow="hidden"><path d="M382.41 192.09c-4.49-35.3-25.42-52.19-59.77-56.73l9.36-8.23c4.27-5.24 7.57-11.29 9.01-17.97.4-1.86.82-10.06 1.17-10.46.16-.18 1.89-.25 2.67-.67 8.89-4.72 12.62-14.86 8.03-24.08-.75-1.51-2.82-3.28-3.13-4.36-.89-3.09-.2-9.52-1.12-13.88-1.76-8.45-7.17-18.14-13.34-24.13-1.42-1.37-7.75-5.42-8-5.86-.38-.66-1.11-7.15-2.04-9.59-8.41-22-40.58-21.2-48.4.97-.9 2.55-1.04 6.78-2.05 8.45-.84 1.38-6.32 4.74-7.91 6.32-7.48 7.45-12.4 18.51-13.75 28.97-.92 7.13.36 5.47-2.74 12.25-4.63 10.12-2.91 19.48 7.38 24.94.78.42 2.51.48 2.67.67.35.4.73 8.39 1.18 10.45 1.46 6.71 4.7 12.72 9 17.98l9.36 8.23c-18.18 2.92-36.87 8.63-47.9 24.42l-1.05.31-16.9-4.09c10.17-7.67 18.24-17.76 20.12-30.83.3-2.07-.45-6.54.42-7.83.19-.28 4.58-2.17 5.89-3.1 6.82-4.84 9.56-12.85 6.84-20.85-1.07-3.16-4.39-6.14-4.8-8.69-1.29-8.07 1.27-16.47-1.16-25.08-4.15-14.71-16.5-22.78-31.47-22.53-12.5.21-9.21-.68-19.83-4.07-26.76-8.54-48.48 10.94-50.14 37.44-.28 4.53.76 10.87 0 15-.35 1.9-3 4.61-3.92 7.32-2.82 8.28-.45 16.38 6.7 21.46 1.31.93 5.7 2.82 5.89 3.1.36.53.77 10.05 1.46 12.79 2.69 10.78 10.28 19.62 19.09 25.87l-17.47 4.04c-11.52-15.77-29.78-21.8-48.38-24.68l5.63-4.47c5.16-4.75 9.79-11.4 11.79-18.18.86-2.9 1.66-13.47 2.12-14.01.11-.13 2.22-.41 3.16-.94 10.19-5.7 11.33-15.26 6.64-25.16-2.97-6.26-1.6-4.62-2.41-11.09-1.74-13.91-7.92-23.73-17.94-33.02-.98-.91-4.21-2.55-4.34-2.77-.42-.73-1.18-7.44-2.27-10.1C96.78-6.4 64.83-4.76 57.2 18.22c-.77 2.31-.62 5.62-1.66 7.34-.87 1.43-6.25 4.6-7.94 6.29-7.3 7.26-12.56 18.7-13.8 28.92-.33 2.72.54 6.35-.17 8.83-.31 1.08-2.57 3.16-3.38 4.86-4.33 9.16-.42 18.97 8.27 23.58.78.42 2.51.48 2.67.67.37.42.84 8.88 1.32 11.05 1.39 6.25 4.17 11.66 8.1 16.63l10.11 8.98c-23.47 3.47-45.03 12.54-54.45 35.81-2.66 6.58-5.53 17.94-6.16 24.95-.24 2.67.17 5.55 0 8.25 6.01 6.46 15.57 11.28 23.68 14.89 25.39 11.32 53.03 14.78 80.57 10.72 49.42 37.97 125.23 38.05 174.67 0 32.39 4.8 68.51-1.2 96.25-19.01 9.77-6.27 8.61-7.46 7.16-18.88zM342.46 77.62c2.55 2.29 2.8 7.13-.36 9l.36-9zm-82.31 0 .36 9c-3.17-1.86-2.91-6.71-.36-9zm-25.83 15.75c5.17 1.79 4.82 9.86 0 12v-12zm-85.31 12c-4.98-1.35-5-10.63 0-12v12zm-25.83-27.75c2.55 2.29 2.8 7.13-.36 9l.36-9zm-81.94 1.87v7.13c-3.73-2.34-2.06-6.45-.74-9.74 1.3-.18.71 1.71.74 2.61zm251.21-66.24c8.05-5.33 19.41-2.69 22.7 6.62-9.51-3.42-16.73-1.94-26.11-.28-4.47.79 2.11-5.47 3.41-6.34zm-28.93 51.62c3.31-48.48 72.25-48.52 75.58 0-7.69-1.37-13.04-4.02-18.34-9.74-2.29-2.48-3.24-6.88-7.49-6.82-2.25.04-12.08 8.17-15.57 9.94-10.78 5.48-22.44 6.47-34.18 6.61zm14.23 54.36c-9.91-12.63-6.11-28.8-6.65-43.75 4.42-1.17 8.99-1 13.52-1.83 10.02-1.83 18.76-6.29 27.17-11.79 6.07 5.12 11.8 10 19.72 12.11-.72 14.21 3.16 30.52-5.12 43.04-11.23 17-36.05 18.26-48.65 2.21zm41.04 27.64-17.86 36.5c-.91-5.09-17.65-35.1-17.22-37.1.21-.99 3.28-1.2 4.55-2.21 1.3-1.04 2.11-4.17 2.64-4.25 1.7-.25 7.67 1.63 10.39 1.63 1.93 0 10.35-1.85 10.79-1.53.19.14.79 3 2.25 4.15 1.57 1.24 4.63.89 4.46 2.81zm-83.34 63.84c5.86.01 6.27 10.19-1.47 8.65-4.54-.9-3.8-8.67 1.47-8.65zM150.5 80.62V68.24c0-11.96 12.33-25.49 24.33-26.62 11.76-1.1 16.43 5.49 25.5 6.68 9.26 1.21 14.55-3.87 23.76 3.2 2.82 2.17 7.99 9.56 7.99 12.99v16.12h-16.09c-12.52 0-24.1-9.57-33.8-15.62-6.82-4.25-7.65 2.08-11.08 5.89-5.16 5.74-12.72 10.07-20.6 9.73zm9.06 9.07c8.14-1.63 14.86-6.77 20.5-12.64 12.84 8.74 28 14.64 43.79 14.07-1.17 13.55 2.9 30.35-3.34 42.78-9.17 18.28-34.07 22.9-49.73 10.03-16.74-13.75-10.03-35.27-11.21-54.24zm51.54 77.54-18.51 39.18-1.66.96c-.66-5.62-20.07-38.71-18.72-40.49.17-.22 3.79-.61 5.3-1.83 2.04-1.64 1.99-4.75 2.19-4.94.29-.28 5.99 1.41 7.82 1.54 2.81.19 6.97.21 9.75-.04 1.37-.12 6.13-1.72 6.36-1.5.2.19.16 3.3 2.19 4.94 1.66 1.34 3.62 1.08 5.27 2.17zM70.4 15.72c7.57-8.36 21.4-6.48 25.46 4.14-9.51-3.42-16.73-1.93-26.11-.28-3.5.61-.4-2.7.65-3.86zM44.24 64.87c2.95-48.5 72.3-48.42 75.58 0-7.69-1.37-13.04-4.02-18.34-9.74-2.34-2.53-3.15-6.8-7.47-6.8-2.63 0-9.23 6.1-12.34 7.93-11.87 7-23.95 8.66-37.43 8.61zm14.23 54.36c-9.91-12.63-6.11-28.8-6.65-43.75 4.42-1.17 8.99-1 13.52-1.83 9.89-1.8 18.83-6.4 27.17-11.79 6.01 5.26 11.79 9.95 19.72 12.11-.63 13.97 2.91 30.12-4.83 42.59-10.86 17.5-36.25 18.84-48.94 2.67zm41.05 27.64-17.86 36.5c-.99-5.03-17.65-35.1-17.22-37.1.21-.99 3.28-1.2 4.55-2.21 1.3-1.04 2.11-4.17 2.64-4.25 1.7-.25 7.67 1.63 10.39 1.63 1.93 0 10.35-1.85 10.79-1.53.19.14.79 3 2.25 4.15 1.57 1.24 4.63.89 4.46 2.81zm-88.63 53c.37-26.72 14.96-48.38 42.36-52.15l24.86 51.95c2.74 2.8 6.88 1.49 8.65-1.79l24.04-50.16c8.48 1.56 17 4.58 23.92 9.85 1.24.94 7.22 5.45 6.05 7.05-22.51 8.12-33.68 32.03-35.18 54.75-32.58 5.04-67.41-.44-94.7-19.49zm246.65 31.89c-43.32 23.59-101.1 21.54-141.85-6.39.21-19.35 7.82-42.56 27.33-50.25-.79 4.49 1.07 12.95 0 16.88-.18.67-7.97 4.85-10.15 9.33-2.08 4.27-2.68 16.69-1.66 21.26 1.22 5.49 8.86 5.22 10.16.76 1.49-5.1-3.53-25.62 9.7-19.9 7.11 3.07-.89 19.76 6.38 22.87 10.05 4.29 7.94-18.33 6.14-23.42-2.3-6.5-9.94-9.55-10.12-10.27-.3-1.25-.3-20.24 0-21.51 1.27-1.14 7.06-2.58 8.16-1.88l25.4 53.66c1.84 3.73 6.78 3.98 9.02.49l25.66-54.16c.84-.53 6.85.74 7.69 1.3 1.24.83-.03 25.94.44 29.71-.36 1.91-4.19 3.01-5.99 5.25-3.96 4.93-4.37 11.02-1.63 16.63 7.02 14.4 30.93 8.63 27.65-10.46-1.16-6.75-9.55-10.67-9.55-11.43v-25.12c17.86 6.55 27.05 29.85 27.73 47.67.16 4.09-7.07 7.11-10.5 8.97zm20.19-12.39c-1.42-22.65-12.72-46.67-35.18-54.76-1.17-1.6 4.82-6.11 6.05-7.05 6.92-5.27 15.44-8.28 23.92-9.85l24.04 50.16c2.4 3.37 5.08 4.29 8.65 1.8l24.86-51.95c27.4 3.78 41.99 25.43 42.36 52.15-27.25 19.08-62.15 24.51-94.71 19.5z" fill="#0098A4"/></svg>