<svg viewBox="0 0 186.21 241.5" xmlns="http://www.w3.org/2000/svg" overflow="hidden"><path d="M185.88 139.89c-3.27-41.29-56.44-105.72-84.94-135.4-1.78-1.85-3.27-3.35-5.62-4.49h-4.49c-2.16 1.45-3.77 2.6-5.62 4.49-10.77 11-22.74 25.81-32.53 37.9-36.21 44.7-75.12 100.97-37.01 157.79 53.28 79.45 177.84 36.1 170.21-60.29zm-27.08 47.84c-47.1 78.69-171.97 21.98-135.69-69.21C37.6 82.09 68.06 50.76 92.71 21l16.47 17.99c32.21 40.67 82.44 93.91 49.62 148.74z" fill="#A10B19"/><path d="M139.52 122.59c-1.02-11.07-13.98-7.19-21.75-7.84-.65-7.78 3.23-20.77-7.82-21.79-8.37-.77-25.38-.77-33.75 0-11.06 1.02-7.17 14.03-7.82 21.79-7.3.8-17.42-2.92-21.38 5.2.21 11.61-1.42 25.03-.37 36.45 1.02 11.08 14 7.18 21.75 7.84.8 7.32-2.92 17.46 5.19 21.42 11.59-.21 24.98 1.42 36.38.37 11.06-1.02 7.17-14.03 7.82-21.79 6.9-.57 20.55 2.94 21.73-7.1.92-7.8.75-26.57.02-34.55zm-16.51 25.16h-15.35c-1.66 0-6.36 4.71-6.36 6.38v15.38H84.83v-15.38c0-1.66-4.7-6.38-6.36-6.38H63.12v-16.5h15.35c1.66 0 6.36-4.71 6.36-6.38v-15.38h16.47v15.38c0 1.66 4.71 6.38 6.36 6.38h15.35v16.5z" fill="#A10B19"/></svg>