<svg viewBox="0 0 193.45 149.75" xmlns="http://www.w3.org/2000/svg" overflow="hidden"><path d="M165.97 80.75c2.72 3.23 11.05 2.74 8.66 8.45-4.71 11.28-20.91 27.87-30.81 35.14-21.19 15.56-56 24.58-81.84 18.28-2.58-.63-12.33-3.27-8.01-7.57 1.92-1.92 5.73.58 8.09 1.25 10.91 3.11 27.48 2.02 38.68 0 25.93-4.64 48.07-19.81 62.97-41.25.66-.95 4.23-5.9 3.8-6.5-2.33-.82-4.51-2.07-6.59-3.37-2.47-1.54-10.44-5.92-6.95-9.41 1.56-1.56 4.37-.43 6.35-.48 3.84-.1 14.7-2.48 17.16-5.49.94-1.16 2.69-6.24 3.34-7.97 7.44-19.9 15.5-58.33-18.16-55.56-17.78 1.47-28.55 23.51-38.5 36.04-9.95 12.53-20.67 21.21-35.04 27.6-3.89 8.53-5.16 18.22-7.93 26.98-.84 2.64-3.22 4.18-5.46 1.88-3.03-3.11-5.14-10.03-6.43-14.14-7.85 6.81-11.31 16.85-16.98 25.16-1.29 1.89-5.91 8.09-7.82 8.59-1.74.45-3.57-.67-3.84-2.47-.36-2.35 2.2-3.8 3.44-5.37 8.92-11.36 12.58-23.98 24.42-33.72 7.22-5.94 6.09 6.21 7.98 10.38.21.46-.19.7.82.55 1.52-7.48 4.06-14.74 6.86-21.81 9.63-5.32 19.28-10.28 27.14-18.14 18.87-18.87 30.01-55.2 63.74-46.49 25.83 6.67 18.89 41.71 12.42 60.13-1.01 2.86-3.42 10.03-4.92 12.24-2.31 3.41-12.5 6.42-16.57 7.05z" stroke="#0098A4" stroke-width="4.707" fill="#0098A4"/><path d="M158.44 38.36c2.06 2.06-1.05 7.19-2.16 9.51-22.26 46.26-69.54 78.68-120.77 83.56l5.86 4.47c2.02 2.15 8.96 8.3 8.52 11.21-.22 1.47-1.71 2.71-3.22 2.63-2.22-.11-4.04-3.87-5.49-5.46-3.65-3.97-13.08-11.33-18.4-12.05-6.33-.86-14.03.13-20.19-1.3-3.51-.81-3.38-5.29.01-6.07l15.5 1.07c5.3-2.76 9.35-8.09 11.88-13.48 1.12-2.39 1.28-6.83 4.84-6.31 5.33.78.45 9.75-1.06 12.42-1.36 2.4-2.92 3.94-4.51 6.03-.23.3-.78.67-.19.98 54.38-2.37 103.66-37.64 124.91-87.22 1.27-.97 3.28-1.18 4.47 0z" stroke="#0098A4" stroke-width="4.707" fill="#0098A4"/></svg>